<svg width="327" height="133" viewBox="0 0 327 133" xmlns="http://www.w3.org/2000/svg">
    <g fill="#08253F" fill-rule="evenodd">
        <path d="M19.51 52.876c2.715 3.739 5.172 6.725 7.13 10.005.86 1.44 1.593 4.055.872 5.165-11.105 17.078-7.974 35.565 9.277 46.48 7.2 4.556 15.712 7.96 24.083 9.617 19.105 3.782 38.528 4.376 58.084 3.625 40.65-1.56 81.338-2.121 121.993-3.561 15.489-.549 30.666-3.39 44.196-11.733 24.594-15.165 24.167-53.908-.752-68.52-13.751-8.064-29.07-10.056-44.547-10.46-51.053-1.336-102.046-.645-152.778 6.141-11.81 1.58-23.702 2.95-34.467 8.559-3.597 1.874-7.768 3.359-8.393 8.522-.098.811-3.154 2.102-4.517 1.785-6.268-1.457-12.421-3.405-20.18-5.625m.588 12.804c-1.77-3.878-4.278-8.486-5.899-13.386-.6-1.813.213-5.201 1.61-6.245 1.42-1.06 4.503-.582 6.589.072 2.445.766 4.492 2.714 6.902 3.673 4.83 1.924 8.682 3.147 13.68-1.966 8.32-8.508 20.272-10.554 31.772-12.292 52.532-7.937 105.432-9.582 158.424-7.985 13.702.412 27.684 2.236 40.893 5.782 22.74 6.107 34.427 21.84 34.912 43.465.517 23.01-10.383 38.32-33.029 46.661-13.156 4.845-26.881 6.62-40.727 7.049a6393.212 6393.212 0 0 1-98.357 2.276c-19.263.3-38.551.353-57.801-.274-13.676-.445-27.24-2.55-39.583-9.171-16.183-8.68-25.604-21.634-24.206-40.469.424-5.697 3.082-11.23 4.82-17.19M21.439 13.397c-2.052-1.548-3.372-3.267-4.973-3.558-1.768-.322-3.794.665-5.707 1.08 1.246 1.874 2.106 4.79 3.83 5.38 2.647.906 7.777 1.246 8.511.002 2.004-3.39 2.256-7.738 3.203-11.705l-2.744-.627-2.12 9.428m-3.707-7.88c1.152-1.56 1.872-3.025 3.033-4.014 3.443-2.934 8.218-1.38 8.942 2.987 1.02 6.133-.567 12.37-5.646 15.601-2.81 1.79-8.888.675-12.449-1.085-2.539-1.255-4.868-5.899-4.59-8.79.554-5.734 5.808-5.432 10.71-4.7M318 50.42c-.6.761-1.258 2.345-2.166 2.545-.954.21-2.577-.57-3.163-1.494-2.94-4.63-5.705-9.403-8.348-14.246-.455-.832-.434-2.776.092-3.279.762-.726 2.558-1.25 3.267-.747 5.481 3.883 8.308 9.862 10.318 17.22M8 107.546 11 103c1.208.967 2.791 1.68 3.553 2.949a111.255 111.255 0 0 1 5.886 11.222c.623 1.37.399 3.171.561 4.776-1.52-.113-3.841.4-4.427-.443-3.069-4.41-5.697-9.167-8.573-13.958M327 41.889c-1.081 1.388-1.608 2.687-2.476 3-.847.305-2.564-.045-2.998-.716a85.707 85.707 0 0 1-5.415-9.693c-.35-.736.181-2.455.861-3.002.681-.547 2.666-.657 3.03-.16 2.454 3.351 4.628 6.915 6.998 10.57M2.597 114c-1.31-1.8-2.735-2.925-2.586-3.75.216-1.198 1.568-2.178 2.437-3.25.909.863 2.539 1.714 2.552 2.59.018 1.177-1.213 2.375-2.403 4.41"/>
    </g>
</svg>
