<svg width="329" height="136" viewBox="0 0 329 136" xmlns="http://www.w3.org/2000/svg" xmlns:xlink="http://www.w3.org/1999/xlink">
    <defs>
        <path id="95c9jjsvda" d="M0 0h10.19v14.923H0z"/>
    </defs>
    <g fill="none" fill-rule="evenodd">
        <path d="m294.642 60.66-1.963-2.22c-4.566 1.176-9.13 2.362-13.7 3.527-2.794.713-4.805.08-4.885-3.216-.14-5.673-3.038-10.248-7.8-12.198-7.266-2.974-15.002-5.904-22.714-6.474-21.7-1.605-43.485-2.576-65.243-2.73-34.352-.244-68.717.083-103.063.796-12.646.263-24.88 3.516-35.7 10.696-19.69 13.067-22.615 43.698-5.672 60.171 8.27 8.042 18.592 12.297 29.439 15.532 16.35 4.874 33.21 4.89 50.04 5.395 47.53 1.424 94.863-.712 141.96-7.471 18.35-2.634 31.955-14.921 35.127-32.087 1.183-6.4.381-12.244-6.087-15.83-3.271-1.814-2.816-3.812-.183-5.844 3.48-2.683 6.963-5.365 10.444-8.048m-14.498-4.22c4.854-2.021 9.225-4.144 13.806-5.612 2.075-.665 5.492-.916 6.616.256 1.19 1.24 1.274 4.925.273 6.612-2.841 4.782-6.483 9.088-9.84 13.622 8.371 10.126 7.239 23.266-1.857 37.015-8.343 12.61-20.983 18.125-35.62 20.212-50.18 7.15-100.624 8.318-151.182 6.964-21.4-.573-42.273-3.504-61.494-14.02-29.357-16.059-28.099-51.771-14.33-68.53 9.628-11.716 22.898-17.553 37.31-18.844a696.547 696.547 0 0 1 66.173-2.777c37.072.22 74.14 1.54 111.203 2.618 5.39.156 10.833 1.146 16.095 2.406 10.623 2.543 19.064 8.021 22.847 20.079M305.865 17.398l9.29 11.485 9.422-11.456-9.425-11.418-9.287 11.39m-4.698.087c3.939-5.565 8.017-11.482 12.359-17.2.403-.53 3.082-.288 3.69.44a233.284 233.284 0 0 1 11.338 14.722c.647.914.57 3.11-.102 4.057a241.613 241.613 0 0 1-11.347 14.737c-.57.685-3.201.837-3.625.282-4.349-5.7-8.438-11.598-12.313-17.038M21.01 37.416c.617.461 1.853.915 2.053 1.65.262.967 0 2.331-.541 3.218-2.688 4.412-5.452 8.787-8.41 13.022-.625.898-2.182 1.592-3.278 1.548-.65-.025-1.634-1.617-1.782-2.607-.624-4.161 6.732-15.333 10.665-16.479.325-.095.654-.178 1.292-.352M310.437 109.614c-3.297 4.952-6.213 9.577-9.471 13.947-.462.619-2.592-.003-3.95-.051.11-1.337-.15-2.854.398-3.979a128.563 128.563 0 0 1 6.002-10.938c.667-1.085 2.13-2.343 3.206-2.324 1 .018 1.97 1.634 3.815 3.345" fill="#08253F"/>
        <g transform="translate(0 35.93)">
            <mask id="94k21qacjb" fill="#fff">
                <use xlink:href="#95c9jjsvda"/>
            </mask>
            <path d="M1.66 14.923c-.684-1.92-2.017-3.72-1.57-4.763C1.53 6.793 3.48 3.606 5.58.59 6.042-.074 8.113-.17 9.09.264c.68.301 1.351 2.239 1.007 2.954-1.606 3.333-3.517 6.524-5.443 9.69-.382.626-1.317.916-2.994 2.015" fill="#08253F" mask="url(#94k21qacjb)"/>
        </g>
    </g>
</svg>
